<svg width="40" height="31" viewBox="0 0 40 31" fill="none" xmlns="http://www.w3.org/2000/svg">
<path d="M37.0025 0.00371233C33.2628 0.21631 25.8298 0.990138 21.2412 3.80381C20.9245 3.99795 20.745 4.34317 20.745 4.7041V29.578C20.745 30.3676 21.6069 30.8666 22.3337 30.5002C27.0547 28.1199 33.8824 27.4705 37.2584 27.2928C38.411 27.2319 39.307 26.3064 39.307 25.1969V2.10235C39.3077 0.891701 38.2595 -0.0673814 37.0025 0.00371233ZM18.0658 3.80381C13.4779 0.990138 6.04492 0.216994 2.30523 0.00371233C1.04821 -0.0673814 0 0.891701 0 2.10235V25.1976C0 26.3077 0.896024 27.2333 2.04864 27.2935C5.42596 27.4712 12.257 28.1213 16.9781 30.5029C17.7028 30.8687 18.562 30.3703 18.562 29.5828V4.6918C18.562 4.33018 18.3832 3.99863 18.0658 3.80381Z" fill="#28A745"/>
</svg>
